<?xml version="1.0" encoding="UTF-8" standalone="no"?>
<!-- Generator: Adobe Illustrator 21.1.0, SVG Export Plug-In . SVG Version: 6.00 Build 0)  -->
<svg xmlns:dc="http://purl.org/dc/elements/1.1/" xmlns:cc="http://creativecommons.org/ns#" xmlns:rdf="http://www.w3.org/1999/02/22-rdf-syntax-ns#" xmlns:svg="http://www.w3.org/2000/svg" xmlns="http://www.w3.org/2000/svg" xmlns:sodipodi="http://sodipodi.sourceforge.net/DTD/sodipodi-0.dtd" xmlns:inkscape="http://www.inkscape.org/namespaces/inkscape" version="1.1" id="Ebene_1" x="0px" y="0px" viewBox="0 0 576.7 152.80001" xml:space="preserve" sodipodi:docname="Domicil_Logo.svg" width="576.70001" height="152.8" inkscape:version="0.92.1 r"><metadata id="metadata81"><rdf:RDF><cc:Work rdf:about=""><dc:format>image/svg+xml</dc:format><dc:type rdf:resource="http://purl.org/dc/dcmitype/StillImage"/><dc:title/></cc:Work></rdf:RDF></metadata><defs id="defs79"/><sodipodi:namedview pagecolor="#ffffff" bordercolor="#666666" borderopacity="1" objecttolerance="10" gridtolerance="10" guidetolerance="10" inkscape:pageopacity="0" inkscape:pageshadow="2" inkscape:window-width="1488" inkscape:window-height="852" id="namedview77" showgrid="false" units="px" fit-margin-top="0" fit-margin-left="0" fit-margin-right="0" fit-margin-bottom="0" inkscape:zoom="0.31001306" inkscape:cx="290.95001" inkscape:cy="76.450006" inkscape:window-x="0" inkscape:window-y="29" inkscape:window-maximized="0" inkscape:current-layer="Ebene_1"/><style type="text/css" id="style2">
	.st0{fill:#A50034;}
	.st1{fill:#6F263D;}
	.st2{fill:#535660;}
</style><polygon class="st0" points="151.6,294 194.4,221.3 130,256.7 " id="polygon4" style="fill:#a50034" transform="translate(-130,-221.3)"/><polygon class="st1" points="194.4,367.5 130,256.7 130,330.7 " id="polygon6" style="fill:#6f263d" transform="translate(-130,-221.3)"/><polygon class="st0" points="237.2,294 194.4,221.3 258.9,256.7 " id="polygon8" style="fill:#a50034" transform="translate(-130,-221.3)"/><polygon class="st2" points="194.4,367.5 258.9,256.7 258.9,330.7 " id="polygon10" style="fill:#535660" transform="translate(-130,-221.3)"/><g id="g18" transform="translate(-130,-221.3)"><path class="st2" d="m 300.3,258.5 h 23.5 c 22.2,0 37.5,15.2 37.5,35.1 v 0.2 c 0,19.8 -15.3,35.3 -37.5,35.3 h -23.5 z m 5.3,4.9 v 60.9 h 18.2 c 19.6,0 32,-13.4 32,-30.2 v -0.2 c 0,-16.7 -12.4,-30.4 -32,-30.4 h -18.2 z" id="path12" inkscape:connector-curvature="0" style="fill:#535660"/><path class="st2" d="m 370,294 v -0.2 c 0,-19.2 14.2,-36.5 35.6,-36.5 21.4,0 35.4,17 35.4,36.3 v 0.2 c 0,19.2 -14.2,36.5 -35.6,36.5 -21.4,0 -35.4,-17 -35.4,-36.3 z m 65.5,0 v -0.2 c 0,-17.4 -12.7,-31.7 -30.1,-31.7 -17.4,0 -29.9,14.1 -29.9,31.5 v 0.2 c 0,17.4 12.7,31.7 30.1,31.7 17.4,0 29.9,-14.1 29.9,-31.5 z" id="path14" inkscape:connector-curvature="0" style="fill:#535660"/><path class="st2" d="m 452.7,258.5 h 4.9 l 28.3,41.7 28.3,-41.7 h 4.9 V 329 H 514 v -61.3 l -28,40.7 h -0.4 l -27.9,-40.6 v 61.3 h -5 z" id="path16" inkscape:connector-curvature="0" style="fill:#535660"/></g><g id="g24" transform="translate(-130,-221.3)"><path class="st2" d="m 539.3,258.5 h 5.2 V 329 h -5.2 z" id="path20" inkscape:connector-curvature="0" style="fill:#535660"/><path class="st2" d="m 559,294 v -0.2 c 0,-19.9 14.9,-36.5 35.3,-36.5 12.6,0 20.2,4.6 27.4,11.3 l -3.7,3.8 c -6.1,-5.9 -13.2,-10.4 -23.8,-10.4 -16.9,0 -29.7,13.8 -29.7,31.5 v 0.2 c 0,17.8 13,31.7 29.8,31.7 10.2,0 17.1,-3.9 24.3,-11 l 3.5,3.4 c -7.5,7.4 -15.5,12.3 -28,12.3 C 573.9,330.3 559,314.3 559,294 Z" id="path22" inkscape:connector-curvature="0" style="fill:#535660"/></g><g id="g30" transform="translate(-130,-221.3)"><path class="st2" d="m 635.1,258.5 h 5.2 V 329 h -5.2 z" id="path26" inkscape:connector-curvature="0" style="fill:#535660"/><path class="st2" d="m 660.1,258.5 h 5.2 v 65.7 h 41.4 v 4.8 h -46.6 z" id="path28" inkscape:connector-curvature="0" style="fill:#535660"/></g><g id="g36" transform="translate(-130,-221.3)"><path class="st2" d="m 300.5,367.4 v -21.1 h 6.5 c 1.2,0 2.2,0.1 3,0.3 0.8,0.2 1.6,0.5 2.2,0.9 0.6,0.4 1.1,1 1.4,1.7 0.3,0.7 0.5,1.6 0.5,2.6 0,1.4 -0.4,2.6 -1.1,3.5 -0.7,0.9 -1.8,1.5 -3.2,1.7 0.4,0.1 0.8,0.2 1.1,0.4 0.3,0.2 0.6,0.3 0.8,0.5 0.2,0.2 0.4,0.5 0.6,0.8 0.2,0.3 0.4,0.7 0.5,1 0.1,0.3 0.3,0.8 0.5,1.3 l 2.3,6.3 h -2.2 l -2.2,-6.1 c -0.2,-0.5 -0.3,-0.9 -0.5,-1.2 -0.1,-0.3 -0.3,-0.6 -0.5,-0.9 -0.2,-0.3 -0.3,-0.5 -0.5,-0.7 -0.2,-0.2 -0.4,-0.3 -0.6,-0.4 -0.3,-0.1 -0.5,-0.2 -0.8,-0.2 -0.3,0 -0.7,-0.1 -1.1,-0.1 h -4.7 v 9.6 h -2 z m 2.2,-11.4 h 4.5 c 1.6,0 2.8,-0.3 3.5,-1 0.8,-0.7 1.2,-1.7 1.2,-3.1 0,-0.7 -0.1,-1.3 -0.3,-1.8 -0.2,-0.5 -0.5,-0.9 -0.8,-1.2 -0.4,-0.3 -0.8,-0.5 -1.4,-0.7 -0.6,-0.2 -1.2,-0.2 -2,-0.2 -0.1,0 -0.3,0 -0.4,0 h -4.4 v 8 z" id="path32" inkscape:connector-curvature="0" style="fill:#535660"/><path class="st2" d="m 327,367.7 c -2.3,0 -4.2,-0.7 -5.6,-2.1 -1.4,-1.4 -2.1,-3.3 -2.1,-5.6 0,-2.4 0.7,-4.3 2,-5.7 1.3,-1.5 3.1,-2.2 5.3,-2.2 2,0 3.6,0.7 4.8,2 1.2,1.3 1.7,3.1 1.7,5.3 0,0.4 0,0.7 0,0.8 h -11.7 c 0,1.8 0.5,3.2 1.5,4.3 1,1 2.4,1.6 4.1,1.6 1.8,0 3.5,-0.6 4.9,-1.7 l 0.7,1.5 c -0.7,0.6 -1.6,1 -2.6,1.4 -1,0.4 -1.9,0.4 -3,0.4 z m -5.4,-9 h 9.8 c -0.1,-1.5 -0.6,-2.8 -1.4,-3.6 -0.8,-0.8 -1.9,-1.3 -3.3,-1.3 -1.4,0 -2.6,0.4 -3.5,1.3 -0.9,0.9 -1.4,2.1 -1.6,3.6 z" id="path34" inkscape:connector-curvature="0" style="fill:#535660"/></g><g id="g42" transform="translate(-130,-221.3)"><path class="st2" d="m 344.4,367.7 c -1.4,0 -2.7,-0.3 -3.8,-1 -1.1,-0.7 -1.9,-1.6 -2.4,-2.8 -0.6,-1.2 -0.8,-2.5 -0.8,-4 0,-2.3 0.6,-4.1 1.9,-5.6 1.3,-1.4 3,-2.2 5.1,-2.2 1.2,0 2.2,0.3 3.1,0.8 0.9,0.6 1.6,1.3 2,2.2 v -2.6 h 2 v 14.9 h -2 v -2.8 c -0.4,1 -1.1,1.7 -2,2.3 -0.9,0.6 -1.9,0.8 -3.1,0.8 z m 0.2,-1.7 c 1.6,0 2.8,-0.6 3.7,-1.7 0.9,-1.1 1.3,-2.6 1.3,-4.5 0,-1.8 -0.4,-3.3 -1.3,-4.4 -0.9,-1.1 -2.1,-1.6 -3.6,-1.6 -1.6,0 -2.9,0.6 -3.8,1.7 -0.9,1.1 -1.4,2.6 -1.4,4.4 0,1.9 0.5,3.4 1.4,4.5 0.8,1 2.1,1.6 3.7,1.6 z" id="path38" inkscape:connector-curvature="0" style="fill:#535660"/><path class="st2" d="m 357.7,367.4 v -21.8 h 2 v 21.8 z" id="path40" inkscape:connector-curvature="0" style="fill:#535660"/></g><g id="g48" transform="translate(-130,-221.3)"><path class="st2" d="m 377.2,367.4 v -21.1 h 12.2 v 1.8 h -10 v 7.5 h 9.5 v 1.8 h -9.5 v 8.2 h 10.5 v 1.8 z" id="path44" inkscape:connector-curvature="0" style="fill:#535660"/><path class="st2" d="m 399.9,367.7 c -0.7,0 -1.3,-0.1 -2,-0.2 -0.6,-0.1 -1.2,-0.3 -1.6,-0.5 -0.5,-0.2 -0.8,-0.4 -1.1,-0.6 -0.3,-0.2 -0.5,-0.3 -0.7,-0.5 l 0.6,-1.6 c 1.5,1.1 3,1.6 4.6,1.6 2.3,0 3.5,-0.8 3.5,-2.5 0,-0.7 -0.2,-1.2 -0.6,-1.6 -0.4,-0.4 -1.2,-0.7 -2.3,-1.1 l -2.1,-0.7 c -1.2,-0.4 -2.1,-0.9 -2.7,-1.5 -0.6,-0.6 -0.9,-1.4 -0.9,-2.5 0,-0.7 0.1,-1.3 0.4,-1.8 0.3,-0.5 0.7,-0.9 1.2,-1.3 0.5,-0.4 1.1,-0.5 1.7,-0.7 0.6,-0.2 1.3,-0.2 2.1,-0.2 1.9,0 3.4,0.4 4.7,1.2 l -0.6,1.5 c -1.2,-0.7 -2.6,-1 -3.9,-1 -1.2,0 -2.1,0.2 -2.6,0.6 -0.6,0.4 -0.9,0.9 -0.9,1.7 0,0.6 0.2,1.1 0.5,1.4 0.3,0.3 1,0.6 2,0.9 0,0 0.2,0.1 0.6,0.2 0.4,0.1 0.7,0.2 1.1,0.3 0.4,0.1 0.6,0.2 0.6,0.2 0.7,0.2 1.3,0.5 1.7,0.7 0.4,0.2 0.8,0.5 1.2,0.8 0.4,0.3 0.7,0.7 0.8,1.1 0.2,0.4 0.3,1 0.3,1.6 0,0.8 -0.1,1.4 -0.4,2 -0.3,0.6 -0.7,1 -1.2,1.4 -0.5,0.3 -1.1,0.6 -1.7,0.8 -0.9,0.2 -1.6,0.3 -2.3,0.3 z" id="path46" inkscape:connector-curvature="0" style="fill:#535660"/></g><g id="g54" transform="translate(-130,-221.3)"><path class="st2" d="m 417.3,367.4 c 0,0 -0.2,0 -0.5,0 -0.3,0 -0.4,0 -0.5,0 -0.7,0 -1.3,-0.1 -1.9,-0.2 -0.5,-0.1 -1,-0.2 -1.3,-0.5 -0.4,-0.2 -0.6,-0.4 -0.9,-0.7 -0.2,-0.2 -0.4,-0.6 -0.5,-1 -0.1,-0.4 -0.2,-0.8 -0.2,-1.2 0,-0.4 -0.1,-0.9 -0.1,-1.5 v -8.6 h -2.9 v -1.4 h 2.9 v -4.1 l 2,-0.6 v 4.6 h 3.7 v 1.4 h -3.7 v 8.7 c 0,0.5 0,0.9 0,1.2 0,0.3 0.1,0.6 0.2,0.8 0.1,0.3 0.2,0.5 0.4,0.6 0.2,0.1 0.4,0.2 0.7,0.3 0.3,0.1 0.6,0.2 1,0.2 0.4,0 0.9,0 1.5,0 v 2 z" id="path50" inkscape:connector-curvature="0" style="fill:#535660"/><path class="st2" d="m 427.6,367.7 c -1.4,0 -2.7,-0.3 -3.8,-1 -1.1,-0.7 -1.9,-1.6 -2.4,-2.8 -0.6,-1.2 -0.8,-2.5 -0.8,-4 0,-2.3 0.6,-4.1 1.9,-5.6 1.3,-1.5 3,-2.2 5.1,-2.2 1.2,0 2.2,0.3 3.1,0.8 0.9,0.5 1.6,1.3 2,2.2 v -2.6 h 2 v 14.9 h -2 v -2.8 c -0.4,1 -1.1,1.7 -2,2.3 -0.9,0.6 -1.9,0.8 -3.1,0.8 z m 0.2,-1.7 c 1.6,0 2.8,-0.6 3.7,-1.7 0.9,-1.1 1.3,-2.6 1.3,-4.5 0,-1.8 -0.4,-3.3 -1.3,-4.4 -0.9,-1.1 -2.1,-1.6 -3.6,-1.6 -1.6,0 -2.9,0.6 -3.8,1.7 -0.9,1.1 -1.4,2.6 -1.4,4.4 0,1.9 0.5,3.4 1.4,4.5 0.8,1 2.1,1.6 3.7,1.6 z" id="path52" inkscape:connector-curvature="0" style="fill:#535660"/></g><g id="g60" transform="translate(-130,-221.3)"><path class="st2" d="m 447.9,367.4 c 0,0 -0.2,0 -0.5,0 -0.3,0 -0.4,0 -0.5,0 -0.7,0 -1.3,-0.1 -1.9,-0.2 -0.6,-0.1 -1,-0.2 -1.3,-0.5 -0.3,-0.3 -0.6,-0.4 -0.9,-0.7 -0.2,-0.2 -0.4,-0.6 -0.5,-1 -0.1,-0.4 -0.2,-0.8 -0.2,-1.2 0,-0.4 -0.1,-0.9 -0.1,-1.5 v -8.6 h -2.9 v -1.4 h 2.9 v -4.1 l 2,-0.6 v 4.6 h 3.7 v 1.4 H 444 v 8.7 c 0,0.5 0,0.9 0,1.2 0,0.3 0.1,0.6 0.2,0.8 0.1,0.3 0.2,0.5 0.4,0.6 0.2,0.1 0.4,0.2 0.7,0.3 0.3,0.1 0.6,0.2 1,0.2 0.4,0 0.9,0 1.5,0 v 2 z" id="path56" inkscape:connector-curvature="0" style="fill:#535660"/><path class="st2" d="m 458.7,367.7 c -2.3,0 -4.2,-0.7 -5.6,-2.1 -1.4,-1.4 -2.1,-3.3 -2.1,-5.6 0,-2.4 0.7,-4.3 2,-5.7 1.3,-1.4 3.1,-2.2 5.3,-2.2 2,0 3.6,0.7 4.8,2 1.2,1.3 1.7,3.1 1.7,5.3 0,0.4 0,0.7 0,0.8 h -11.7 c 0,1.8 0.5,3.2 1.5,4.3 1,1 2.4,1.6 4.1,1.6 1.8,0 3.5,-0.6 4.9,-1.7 l 0.7,1.5 c -0.7,0.6 -1.6,1 -2.6,1.4 -0.9,0.2 -1.9,0.4 -3,0.4 z m -5.4,-9 h 9.8 c -0.1,-1.5 -0.6,-2.8 -1.4,-3.6 -0.8,-0.9 -1.9,-1.3 -3.3,-1.3 -1.4,0 -2.6,0.4 -3.5,1.3 -0.9,0.9 -1.5,2.1 -1.6,3.6 z" id="path58" inkscape:connector-curvature="0" style="fill:#535660"/></g><g id="g70" transform="translate(-130,-221.3)"><path class="st2" d="m 490.2,367.7 c -3.3,0 -5.9,-0.9 -7.8,-2.8 -1.9,-1.9 -2.8,-4.5 -2.8,-7.7 0,-2.2 0.4,-4.2 1.3,-5.9 0.9,-1.7 2.2,-3 3.8,-4 1.6,-1 3.5,-1.4 5.6,-1.4 2.7,0 5,0.7 6.9,2.1 l -0.9,1.5 c -1.8,-1.2 -3.8,-1.9 -6,-1.9 -2.6,0 -4.7,0.9 -6.2,2.6 -1.5,1.7 -2.3,4 -2.3,6.8 0,2.7 0.7,4.8 2.2,6.4 1.5,1.6 3.5,2.4 6.2,2.4 2.1,0 3.9,-0.3 5.3,-0.9 v -6.7 h -5.6 v -1.8 h 7.7 v 9.7 c -2.1,1.1 -4.5,1.6 -7.4,1.6 z" id="path62" inkscape:connector-curvature="0" style="fill:#535660"/><path class="st2" d="m 503.9,367.4 v -11.3 c 0,-0.4 0,-1 0,-1.6 0,-0.6 -0.1,-1.1 -0.1,-1.5 v -0.6 h 2.1 l 0.1,2.5 c 0.4,-1 0.9,-1.7 1.7,-2.2 0.7,-0.5 1.6,-0.7 2.5,-0.7 0.5,0 1,0 1.5,0.1 v 1.8 c -0.5,-0.1 -1,-0.2 -1.5,-0.2 -1.3,0 -2.3,0.4 -3,1.3 -0.7,0.9 -1.1,2.2 -1.1,3.9 v 8.2 h -2.2 z" id="path64" inkscape:connector-curvature="0" style="fill:#535660"/><path class="st2" d="m 522.5,367.7 c -2.4,0 -4.2,-0.7 -5.6,-2.1 -1.4,-1.4 -2,-3.3 -2,-5.6 0,-2.4 0.7,-4.3 2.1,-5.7 1.4,-1.4 3.2,-2.1 5.6,-2.1 2.4,0 4.2,0.7 5.6,2.1 1.3,1.4 2,3.3 2,5.7 0,2.3 -0.7,4.2 -2,5.6 -1.5,1.4 -3.3,2.1 -5.7,2.1 z m 0,-1.7 c 1.7,0 3.1,-0.5 4,-1.6 0.9,-1.1 1.4,-2.6 1.4,-4.4 0,-1.9 -0.5,-3.4 -1.4,-4.5 -0.9,-1.1 -2.3,-1.7 -4,-1.7 -1.7,0 -3.1,0.6 -4.1,1.7 -1,1.1 -1.4,2.6 -1.4,4.5 0,1.8 0.5,3.3 1.4,4.4 1,1.1 2.4,1.6 4.1,1.6 z" id="path66" inkscape:connector-curvature="0" style="fill:#535660"/><path class="st2" d="m 540.8,367.7 c -1.9,0 -3.3,-0.5 -4.3,-1.6 -1,-1.1 -1.4,-2.6 -1.4,-4.6 v -9.1 h 2 v 9.1 c 0,1.5 0.3,2.6 1,3.3 0.6,0.8 1.6,1.1 2.9,1.1 0.8,0 1.5,-0.1 2.1,-0.4 0.6,-0.3 1.2,-0.6 1.5,-1 0.4,-0.4 0.7,-0.9 0.9,-1.3 0.2,-0.5 0.3,-1 0.3,-1.4 v -9.4 h 2.1 v 11.4 c 0,1.3 0,2.4 0.1,3.5 h -2 l -0.1,-2.6 c -0.5,0.9 -1.2,1.6 -2.1,2.1 -0.9,0.5 -1.8,0.9 -3,0.9 z" id="path68" inkscape:connector-curvature="0" style="fill:#535660"/></g><g id="g74" transform="translate(-130,-221.3)"><path class="st2" d="m 553.9,374.1 v -17.5 c 0,-0.9 0,-2.2 -0.1,-4.1 h 2.1 v 3.1 c 0.3,-1 1,-1.8 2,-2.5 1,-0.7 2.1,-1 3.4,-1 2,0 3.7,0.7 4.9,2.1 1.2,1.4 1.8,3.3 1.8,5.6 0,2.3 -0.6,4.2 -1.8,5.6 -1.2,1.4 -2.9,2.2 -4.9,2.2 -1.3,0 -2.4,-0.3 -3.4,-0.9 -1,-0.6 -1.7,-1.3 -2,-2.2 v 9.4 h -2 z m 7.2,-8 c 1.5,0 2.7,-0.5 3.6,-1.6 0.8,-1.1 1.3,-2.6 1.3,-4.4 0,-1.9 -0.4,-3.4 -1.3,-4.5 -0.8,-1.1 -2,-1.7 -3.6,-1.7 -1.6,0 -2.9,0.6 -3.8,1.7 -0.9,1.2 -1.4,2.7 -1.4,4.6 0,1.8 0.5,3.2 1.4,4.3 0.9,1 2.1,1.6 3.8,1.6 z" id="path72" inkscape:connector-curvature="0" style="fill:#535660"/></g></svg>